{
	"asset":{
		"generator":"Khronos glTF Blender I/O v5.1.19",
		"version":"2.0"
	},
	"scene":0,
	"scenes":[
		{
			"name":"Scene",
			"nodes":[
				0,
				1,
				2,
				3,
				4
			]
		}
	],
	"nodes":[
		{
			"extras":{
				"scinodes.role":"part",
				"scinodes.name":"housing"
			},
			"mesh":0,
			"name":"housing"
		},
		{
			"extras":{
				"scinodes.role":"part",
				"scinodes.name":"shaft"
			},
			"mesh":1,
			"name":"shaft",
			"translation":[
				0,
				0.019999999552965164,
				0
			]
		},
		{
			"extras":{
				"scinodes.role":"joint",
				"scinodes.name":"shaft_bearing"
			},
			"name":"shaft_bearing"
		},
		{
			"extras":{
				"scinodes.role":"anchor",
				"scinodes.name":"terminal_plus"
			},
			"name":"terminal_plus",
			"translation":[
				0.019999999552965164,
				0.05000000074505806,
				0
			]
		},
		{
			"extras":{
				"scinodes.role":"anchor",
				"scinodes.name":"terminal_minus"
			},
			"name":"terminal_minus",
			"translation":[
				-0.019999999552965164,
				0.05000000074505806,
				0
			]
		}
	],
	"meshes":[
		{
			"name":"Cylinder",
			"primitives":[
				{
					"attributes":{
						"POSITION":0,
						"NORMAL":1,
						"TEXCOORD_0":2
					},
					"indices":3
				}
			]
		},
		{
			"name":"Cylinder.001",
			"primitives":[
				{
					"attributes":{
						"POSITION":4,
						"NORMAL":5,
						"TEXCOORD_0":6
					},
					"indices":3
				}
			]
		}
	],
	"accessors":[
		{
			"bufferView":0,
			"componentType":5126,
			"count":192,
			"max":[
				0.02500000037252903,
				0.029999999329447746,
				0.02500000037252903
			],
			"min":[
				-0.02500000037252903,
				-0.029999999329447746,
				-0.02500000037252903
			],
			"type":"VEC3"
		},
		{
			"bufferView":1,
			"componentType":5126,
			"count":192,
			"type":"VEC3"
		},
		{
			"bufferView":2,
			"componentType":5126,
			"count":192,
			"type":"VEC2"
		},
		{
			"bufferView":3,
			"componentType":5123,
			"count":372,
			"type":"SCALAR"
		},
		{
			"bufferView":4,
			"componentType":5126,
			"count":192,
			"max":[
				0.0024999999441206455,
				0.019999999552965164,
				0.0024999999441206455
			],
			"min":[
				-0.0024999999441206455,
				-0.019999999552965164,
				-0.0024999999441206455
			],
			"type":"VEC3"
		},
		{
			"bufferView":5,
			"componentType":5126,
			"count":192,
			"type":"VEC3"
		},
		{
			"bufferView":6,
			"componentType":5126,
			"count":192,
			"type":"VEC2"
		}
	],
	"bufferViews":[
		{
			"buffer":0,
			"byteLength":2304,
			"byteOffset":0,
			"target":34962
		},
		{
			"buffer":0,
			"byteLength":2304,
			"byteOffset":2304,
			"target":34962
		},
		{
			"buffer":0,
			"byteLength":1536,
			"byteOffset":4608,
			"target":34962
		},
		{
			"buffer":0,
			"byteLength":744,
			"byteOffset":6144,
			"target":34963
		},
		{
			"buffer":0,
			"byteLength":2304,
			"byteOffset":6888,
			"target":34962
		},
		{
			"buffer":0,
			"byteLength":2304,
			"byteOffset":9192,
			"target":34962
		},
		{
			"buffer":0,
			"byteLength":1536,
			"byteOffset":11496,
			"target":34962
		}
	],
	"buffers":[
		{
			"byteLength":13032,
			"uri":"dc_motor.bin"
		}
	]
}
