{
	"asset":{
		"generator":"Khronos glTF Blender I/O v5.1.20",
		"version":"2.0"
	},
	"scene":0,
	"scenes":[
		{
			"name":"Scene",
			"nodes":[
				0,
				1,
				2,
				3,
				4,
				5,
				6
			]
		}
	],
	"nodes":[
		{
			"mesh":0,
			"name":"base",
			"translation":[
				0,
				0,
				0.0018699999200180173
			]
		},
		{
			"mesh":1,
			"name":"housing_1",
			"rotation":[
				0.7071068286895752,
				0,
				0,
				0.7071068286895752
			],
			"translation":[
				0,
				0,
				0.13538657128810883
			]
		},
		{
			"mesh":2,
			"name":"shaft_1",
			"rotation":[
				0.7071068286895752,
				0,
				0,
				0.7071068286895752
			],
			"translation":[
				0,
				0,
				0.20128798484802246
			]
		},
		{
			"mesh":3,
			"name":"link_1",
			"translation":[
				0,
				0,
				0.20128796994686127
			]
		},
		{
			"mesh":4,
			"name":"shaft_2",
			"rotation":[
				0.7071068286895752,
				0,
				0,
				0.7071068286895752
			],
			"translation":[
				0.5,
				0,
				0.2243824005126953
			]
		},
		{
			"mesh":5,
			"name":"housing_2",
			"rotation":[
				0.7071068286895752,
				0,
				0,
				0.7071068286895752
			],
			"translation":[
				0.5,
				0,
				0.13538700342178345
			]
		},
		{
			"mesh":6,
			"name":"link_2",
			"translation":[
				0.5,
				0,
				0.22496230900287628
			]
		}
	],
	"meshes":[
		{
			"name":"Cube.001",
			"primitives":[
				{
					"attributes":{
						"POSITION":0,
						"NORMAL":1,
						"TEXCOORD_0":2
					},
					"indices":3
				}
			]
		},
		{
			"name":"Cylinder",
			"primitives":[
				{
					"attributes":{
						"POSITION":4,
						"NORMAL":5,
						"TEXCOORD_0":6
					},
					"indices":7
				}
			]
		},
		{
			"name":"Cylinder.001",
			"primitives":[
				{
					"attributes":{
						"POSITION":8,
						"NORMAL":9,
						"TEXCOORD_0":10
					},
					"indices":7
				}
			]
		},
		{
			"name":"Cube.002",
			"primitives":[
				{
					"attributes":{
						"POSITION":11,
						"NORMAL":12,
						"TEXCOORD_0":13
					},
					"indices":3
				}
			]
		},
		{
			"name":"Cylinder.005",
			"primitives":[
				{
					"attributes":{
						"POSITION":14,
						"NORMAL":15,
						"TEXCOORD_0":16
					},
					"indices":7
				}
			]
		},
		{
			"name":"Cylinder.006",
			"primitives":[
				{
					"attributes":{
						"POSITION":17,
						"NORMAL":18,
						"TEXCOORD_0":19
					},
					"indices":7
				}
			]
		},
		{
			"name":"Cube.004",
			"primitives":[
				{
					"attributes":{
						"POSITION":20,
						"NORMAL":21,
						"TEXCOORD_0":22
					},
					"indices":3
				}
			]
		}
	],
	"accessors":[
		{
			"bufferView":0,
			"componentType":5126,
			"count":24,
			"max":[
				0.15488393604755402,
				0.10000002384185791,
				0.10000002384185791
			],
			"min":[
				-0.15488393604755402,
				-0.10000002384185791,
				-0.10000002384185791
			],
			"type":"VEC3"
		},
		{
			"bufferView":1,
			"componentType":5126,
			"count":24,
			"type":"VEC3"
		},
		{
			"bufferView":2,
			"componentType":5126,
			"count":24,
			"type":"VEC2"
		},
		{
			"bufferView":3,
			"componentType":5123,
			"count":36,
			"type":"SCALAR"
		},
		{
			"bufferView":4,
			"componentType":5126,
			"count":192,
			"max":[
				0.050000011920928955,
				0.050000011920928955,
				0.050000011920928955
			],
			"min":[
				-0.050000011920928955,
				-0.050000011920928955,
				-0.050000011920928955
			],
			"type":"VEC3"
		},
		{
			"bufferView":5,
			"componentType":5126,
			"count":192,
			"type":"VEC3"
		},
		{
			"bufferView":6,
			"componentType":5126,
			"count":192,
			"type":"VEC2"
		},
		{
			"bufferView":7,
			"componentType":5123,
			"count":372,
			"type":"SCALAR"
		},
		{
			"bufferView":8,
			"componentType":5126,
			"count":192,
			"max":[
				0.015000004321336746,
				0.038512442260980606,
				0.015000004321336746
			],
			"min":[
				-0.015000004321336746,
				-0.06395638734102249,
				-0.015000003390014172
			],
			"type":"VEC3"
		},
		{
			"bufferView":9,
			"componentType":5126,
			"count":192,
			"type":"VEC3"
		},
		{
			"bufferView":10,
			"componentType":5126,
			"count":192,
			"type":"VEC2"
		},
		{
			"bufferView":11,
			"componentType":5126,
			"count":24,
			"max":[
				0.5276948809623718,
				0.02500000223517418,
				0.00952516496181488
			],
			"min":[
				-0.03230512887239456,
				-0.02500000223517418,
				-0.010474834591150284
			],
			"type":"VEC3"
		},
		{
			"bufferView":12,
			"componentType":5126,
			"count":24,
			"type":"VEC3"
		},
		{
			"bufferView":13,
			"componentType":5126,
			"count":24,
			"type":"VEC2"
		},
		{
			"bufferView":14,
			"componentType":5126,
			"count":192,
			"max":[
				0.015000004321336746,
				0.01541802380234003,
				0.015000006183981895
			],
			"min":[
				-0.015000004321336746,
				-0.08705081045627594,
				-0.015000002458691597
			],
			"type":"VEC3"
		},
		{
			"bufferView":15,
			"componentType":5126,
			"count":192,
			"type":"VEC3"
		},
		{
			"bufferView":16,
			"componentType":5126,
			"count":192,
			"type":"VEC2"
		},
		{
			"bufferView":17,
			"componentType":5126,
			"count":192,
			"max":[
				0.050000011920928955,
				0.050000011920928955,
				0.050000011920928955
			],
			"min":[
				-0.050000011920928955,
				-0.050000011920928955,
				-0.050000011920928955
			],
			"type":"VEC3"
		},
		{
			"bufferView":18,
			"componentType":5126,
			"count":192,
			"type":"VEC3"
		},
		{
			"bufferView":19,
			"componentType":5126,
			"count":192,
			"type":"VEC2"
		},
		{
			"bufferView":20,
			"componentType":5126,
			"count":24,
			"max":[
				0.5276948809623718,
				0.02500000223517418,
				0.009616870433092117
			],
			"min":[
				-0.03230512887239456,
				-0.02500000223517418,
				-0.010383129119873047
			],
			"type":"VEC3"
		},
		{
			"bufferView":21,
			"componentType":5126,
			"count":24,
			"type":"VEC3"
		},
		{
			"bufferView":22,
			"componentType":5126,
			"count":24,
			"type":"VEC2"
		}
	],
	"bufferViews":[
		{
			"buffer":0,
			"byteLength":288,
			"byteOffset":0,
			"target":34962
		},
		{
			"buffer":0,
			"byteLength":288,
			"byteOffset":288,
			"target":34962
		},
		{
			"buffer":0,
			"byteLength":192,
			"byteOffset":576,
			"target":34962
		},
		{
			"buffer":0,
			"byteLength":72,
			"byteOffset":768,
			"target":34963
		},
		{
			"buffer":0,
			"byteLength":2304,
			"byteOffset":840,
			"target":34962
		},
		{
			"buffer":0,
			"byteLength":2304,
			"byteOffset":3144,
			"target":34962
		},
		{
			"buffer":0,
			"byteLength":1536,
			"byteOffset":5448,
			"target":34962
		},
		{
			"buffer":0,
			"byteLength":744,
			"byteOffset":6984,
			"target":34963
		},
		{
			"buffer":0,
			"byteLength":2304,
			"byteOffset":7728,
			"target":34962
		},
		{
			"buffer":0,
			"byteLength":2304,
			"byteOffset":10032,
			"target":34962
		},
		{
			"buffer":0,
			"byteLength":1536,
			"byteOffset":12336,
			"target":34962
		},
		{
			"buffer":0,
			"byteLength":288,
			"byteOffset":13872,
			"target":34962
		},
		{
			"buffer":0,
			"byteLength":288,
			"byteOffset":14160,
			"target":34962
		},
		{
			"buffer":0,
			"byteLength":192,
			"byteOffset":14448,
			"target":34962
		},
		{
			"buffer":0,
			"byteLength":2304,
			"byteOffset":14640,
			"target":34962
		},
		{
			"buffer":0,
			"byteLength":2304,
			"byteOffset":16944,
			"target":34962
		},
		{
			"buffer":0,
			"byteLength":1536,
			"byteOffset":19248,
			"target":34962
		},
		{
			"buffer":0,
			"byteLength":2304,
			"byteOffset":20784,
			"target":34962
		},
		{
			"buffer":0,
			"byteLength":2304,
			"byteOffset":23088,
			"target":34962
		},
		{
			"buffer":0,
			"byteLength":1536,
			"byteOffset":25392,
			"target":34962
		},
		{
			"buffer":0,
			"byteLength":288,
			"byteOffset":26928,
			"target":34962
		},
		{
			"buffer":0,
			"byteLength":288,
			"byteOffset":27216,
			"target":34962
		},
		{
			"buffer":0,
			"byteLength":192,
			"byteOffset":27504,
			"target":34962
		}
	],
	"buffers":[
		{
			"byteLength":27696,
			"uri":"arm_2r.bin"
		}
	]
}
